<svg height="16" viewBox="0 0 16 16" width="16" xmlns="http://www.w3.org/2000/svg"><path d="m12 16c0-1 .446169-1.677492.997208-2.004739s1.552788-.302657 1.935486-.612948c.39166-.317558.238883-1.354794-.506722-1.360997-.602093-.005-2.280917.114349-2.994345 1.000498 0 0 .02877-.342307.728246-1.143787.25749-.295051.845071-.831245 1.335226-1.142006.315855-.200253.304568-.7940042.07635-1.1019159-.215366-.2906622-.757754-.5139818-1.267426-.097492-.875141.7151419-1.535631 1.3688649-1.96025 2.2237409 0 0 .555629-1.8148729 1.43465-3.1148791.585017-.8652009 1.447696-1.7613109 1.817344-2.0254611.476676-.3406332.395132-.8215602.257622-1.0775902-.137511-.25603-.649361-.8320229-1.469324-.2618772-.819964.5701457-1.8201 1.6816705-2.348572 2.7445314s-1.1018056 2.5619382-1.2122906 3.1644092c-.110485.60247.5333328-3.1752147.6357058-5.079275.102374-1.9040603-.0477389-3.4964517-.3531978-3.9387761-.2751828-.3984826-.8833696-.4032313-1.1565766-.2908387s-.5957703.4281338-.4622839 1.2053489c.091674.5337666.3731939 2.7779204-.06879 5.3078203 0 0-.2057111-2.091578-1.1059456-3.5329404-.6953339-1.1132976-1.4709299-1.766534-1.9207789-1.9933816-.449849-.2268475-.9125047-.0586449-1.1722357.2318279-.259732.2904727-.2725999.796324.0722066 1.0619276.7473817.5757065 1.8873348 2.3387974 2.0981248 3.1994408.21079.8606435.4931243 2.5858981.4097173 3.5376743 0 0-.7080016-1.2931297-1.6459356-2.2119993-.9386135-.9195354-1.5936048-1.4640717-2.3630513-1.1946814-.4980943.1743873-.7806591 1.1030419-.3368274 1.4021851.5723157.3857416 1.5820789 1.3039366 2.1658692 2.0464946.7549572.960276 1.2957891 1.962209 1.4475241 3.041457 0 0-.6087356-1.160801-1.5415066-1.565491s-1.3957658-.363075-1.8337441-.146313c-.3852071.190644-.4632405 1.066396-.2526335 1.28813.282265.297177.7544938.392878 1.3193052.541587.5303985.139651 1.2418516.900316 1.2418516 1.900316h7z" fill="#46be00"/></svg>