<svg height="16" viewBox="0 0 16 16" width="16" xmlns="http://www.w3.org/2000/svg"><path d="m8 1.2578125c-3.7137378 0-6.7421875 3.0284495-6.7421875 6.7421875s3.0284497 6.742188 6.7421875 6.742188c3.713738 0 6.742188-3.02845 6.742188-6.742188s-3.02845-6.7421875-6.742188-6.7421875zm0 1.6992187c2.79499 0 5.042969 2.2479781 5.042969 5.0429688 0 2.794991-2.247979 5.042969-5.042969 5.042969-2.7949904 0-5.0429688-2.247978-5.0429688-5.042969 0-2.7949907 2.2479784-5.0429687 5.0429688-5.0429688zm-1.5390625 1.3730469a1 1 0 0 0 -1 1 1 1 0 0 0 1 1 1 1 0 0 0 1-1 1 1 0 0 0 -1-1zm4.7011715.9570313a1 1 0 0 0 -1 1 1 1 0 0 0 1 1 1 1 0 0 0 1-1 1 1 0 0 0 -1-1zm-2.5859371 1.7617187a1 1 0 0 0 -1 1 1 1 0 0 0 1 1 1 1 0 0 0 1-1 1 1 0 0 0 -1-1zm-3.671875.4765625a1 1 0 0 0 -1 1 1 1 0 0 0 1 1 1 1 0 0 0 1-1 1 1 0 0 0 -1-1zm2.8339843 2.7304684a1 1 0 0 0 -1 1 1 1 0 0 0 1 1 1 1 0 0 0 1-1 1 1 0 0 0 -1-1z" fill="#fff"/></svg>