<svg height="16" viewBox="0 0 16 16" width="16" xmlns="http://www.w3.org/2000/svg"><path d="m2 2.5a1 1 0 0 0 -1 1v9a1 1 0 0 0 1 1 1 1 0 0 0 1-1v-4.5-4.5a1 1 0 0 0 -1-1zm1 5.5a1 1 0 0 0 .00586.044922 1.0001 1.0001 0 0 0 .019531.1464843 1 1 0 0 0 .023437.1054688 1.0001 1.0001 0 0 0 .056641.1328125 1 1 0 0 0 .041016.085937 1.0001 1.0001 0 0 0 .1464844.1914062l2 1.9999998a1 1 0 0 0 1.4140624 0 1 1 0 0 0 0-1.4140622l-.2929693-.2929684h3.171875l-.2929687.2929688a1 1 0 0 0 0 1.4140622 1 1 0 0 0 1.4140622 0l2-1.9999998a1.0001 1.0001 0 0 0 .152344-.1992187 1.0001 1.0001 0 0 0 .0059-.00781 1 1 0 0 0 .0039-.00977 1.0001 1.0001 0 0 0 .09375-.21875 1 1 0 0 0 .005825-.0214825 1.0001 1.0001 0 0 0 .03125-.25 1.0001 1.0001 0 0 0 -.0039-.078125 1 1 0 0 0 -.0039-.041016 1.0001 1.0001 0 0 0 -.0098-.064453 1.0001 1.0001 0 0 0 -.02148-.089844 1.0001 1.0001 0 0 0 -.0293-.087891 1.0001 1.0001 0 0 0 -.0332-.076172 1.0001 1.0001 0 0 0 -.0039-.00781 1 1 0 0 0 -.0039-.00781 1.0001 1.0001 0 0 0 -.03906-.068359 1 1 0 0 0 -.04297-.066406 1 1 0 0 0 -.04883-.060547 1.0001 1.0001 0 0 0 -.02149-.025391 1 1 0 0 0 -.03125-.033203l-.0332-.03125-1.966797-1.96875a1 1 0 0 0 -.707023-.292973 1 1 0 0 0 -.7070312.2929688 1 1 0 0 0 0 1.4140624l.2929687.2929688h-3.171875l.2929687-.2929688a1 1 0 0 0 0-1.4140624 1 1 0 0 0 -.7070312-.2929688 1 1 0 0 0 -.7070312.2929688l-2 2a1.0001 1.0001 0 0 0 -.1464844.1914062 1 1 0 0 0 -.0410156.0859375 1.0001 1.0001 0 0 0 -.0566407.1328125 1 1 0 0 0 -.0234375.1054688 1.0001 1.0001 0 0 0 -.0195312.1464843 1 1 0 0 0 -.0058594.0449219zm10 0v4.5a1 1 0 0 0 1 1 1 1 0 0 0 1-1v-9a1 1 0 0 0 -1-1 1 1 0 0 0 -1 1z" fill="#fffffe" stroke-linecap="round"/></svg>