<svg height="16" viewBox="0 0 16 16" width="16" xmlns="http://www.w3.org/2000/svg"><path d="m7.8671875 1.2617188c-.3038907.00632-.6064267.033329-.90625.080078-1.5990577.2493296-3.108174 1.0692433-4.1953125 2.4082032-2.17427681 2.6779197-1.97068427 6.584609.4707031 9.021484 2.4413876 2.436875 6.3495439 2.634307 9.0234379.455078 2.473304-2.015748 3.166556-5.4762941 1.757812-8.2656245.145263-.2978322.226563-.6317035.226563-.9824219 0-1.2415259-1.024099-2.2636718-2.265625-2.2636718-.358888 0-.69912.086848-1.001954.2382812-.9863204-.4857269-2.0530329-.7133923-3.1093745-.6914062zm-.0234375 1.6953124c.094481-.00293.1885299-.0024.2832031 0 .5713259.014495 1.1447113.1264527 1.6933594.3398438-.068951.2154842-.1054689.4445687-.1054687.6816406 0 .3597626.08811.7002861.2402343 1.0039063l-1.5683593 1.5683593c-.1235716-.0334128-.2532324-.0507812-.3867188-.0507812-.822504 0-1.5.677496-1.5 1.5s.677496 1.5 1.5 1.5 1.5-.677496 1.5-1.5c0-.1334864-.0173684-.2631472-.0507812-.3867188l1.5820312-1.5820312c.289215.1354542.609367.2128906.947266.2128906.245718 0 .482647-.041258.705078-.1152344.80796 2.0115065.244046 4.3594878-1.498047 5.7792968-2.0095188 1.637762-4.9132637 1.491548-6.748047-.339844-1.8347832-1.8313906-1.9856033-4.7335483-.3515625-6.7460934.9574459-1.1792256 2.3405979-1.8213414 3.7578125-1.8652344zm4.134766.2675782c.425764 0 .755859.3281414.755859.7539062s-.330095.7558594-.755859.7558594c-.425765 0-.753907-.3300946-.753907-.7558594s.328142-.7539062.753907-.7539062z" fill="#fff"/></svg>